<svg xmlns="http://www.w3.org/2000/svg" id="Camada_1" viewBox="0 0 1080 1080"><defs><style>.cls-1{fill:#fff}</style></defs><path d="m1047.71,664.86c-10.23,8.52-20.59,16.89-31.15,25-46.61,35.84-99.75,56.11-157.51,64.41-47.62,6.84-95.13,6.09-143.21-5.41v-21.45c0-187.83,0-375.67,0-563.5,0-4.7.2-9.41-.11-14.08-.54-8.29-3.36-10.52-12.5-7.66-22.48,7.05-31.61,18.97-31.62,45.9-.04,176.1-.02,352.19-.02,528.28v23.24c-37.17,3.3-40.83.05-40.83-32.92,0-129.14,0-258.27,0-387.41v-20.25c-27.3-2.22-44.17,12.79-45.42,37.86-.29,5.74-.34,11.96-2.57,17.05-46.96,107.26-98.87,211.84-166.58,307.93-6.2,8.8-10.92,10.93-21.38,7.59-29.16-9.34-58.61-17.98-88.34-25.28-34.94-8.58-70.12-16.14-105.26-23.88-6.94-.88-13.89-1.53-20.62-1.61-7.09-.08-16.57.7-23.67,1.54-15.3,1.68-21.14,4.03-32.45,6.97-81.18,21.12-136.85,90.67-122.11,169.51,10.39,55.57,56.3,104.02,122.76,102.45,48.04-1.14,89.61-18.63,128.36-44.26,59.01-39.03,107.38-89.63,148.47-146.63,11.08-15.37,21.47-14.81,34.84-10.81,44.81,13.43,89.33,27.78,134.15,41.19,10.53,3.15,14.93,7.83,14.77,19.52-.68,48.71-.29,97.44-.29,146.16,0,11.42,0,22.84,0,34.69,36.22-8.37,45.32-19.7,45.34-54.03.01-25.83,0-51.65,0-77.48v-50.22c7.92,1.28,13,2.05,18.06,2.91,48.62,8.24,96.96,19.61,145.92,23.94,58.61,5.18,116.42-5.23,170.97-27.83,45.58-18.89,86.52-44.94,114.28-88.34-10.5-12.17-20.8-12.66-32.29-3.1Zm-759.64,140.74c-30.62,24.45-63.45,44.73-100.62,57.03-52.36,17.33-92.24,14.24-122.1-19.96-36.05-41.3-34.24-105.54-.73-149.6,16.95-22.29,37.99-36.03,66.63-45.21-.06.08-.12.16-.18.24.29-.08.56-.19.85-.26,1.17-.28,11.75-3.7,12.92-3.96,16.86-4.53,29.64-5.57,50.58-5.54,4.97,0,9.06,1.01,15.81,1.57,2.01.23,4.03.56,6.05,1.03,60.07,13.98,119.93,28.85,183.03,44.16-35.54,46.47-70.09,86.85-112.24,120.51Zm296.51-81.16c-53.34-15.28-105.68-30.28-154.79-44.35,52.27-93.95,104.15-187.2,154.79-278.23v322.58Z" class="cls-1"/></svg>